{
  "source": "C:\\Users\\Peter\\Desktop\\stuff\\MIUN\\quantitative_research\\video_compression\\videos\\UVG\\YachtRide_1920x1080_120fps_420_8bit_YUV.y4m",
  "output": "C:\\Users\\Peter\\Desktop\\stuff\\MIUN\\quantitative_research\\video_compression\\compressed_videos\\UVG\\av1\\4\\YachtRide_1920x1080_120fps_420_8bit_YUV_av1.mkv",
  "codec": "av1",
  "ok": "[yuv4mpegpipe @ 000001fa02a55380] Stream #0: not enough frames to estimate rate; consider increasing probesize\nInput #0, yuv4mpegpipe, from 'C:\\Users\\Peter\\Desktop\\stuff\\MIUN\\quantitative_research\\video_compression\\videos\\UVG\\YachtRide_1920x1080_120fps_420_8bit_YUV.y4m':\n  Duration: 00:00:05.00, start: 0.000000, bitrate: 2985989 kb/s\n  Stream #0:0: Video: rawvideo (I420 / 0x30323449), yuv420p(progressive), 1920x1080, 120 fps, 120 tbr, 120 tbn\n[out#0/matroska @ 000001fa02a590c0] Codec AVOption b:a (set bitrate (in bits/s)) has not been used for any stream. The most likely reason is either wrong type (e.g. a video option with no video streams) or that it is a private option of some decoder which was not actually used for any stream.\nStream mapping:\n  Stream #0:0 -> #0:0 (rawvideo (native) -> av1 (libsvtav1))\nPress [q] to stop, [?] for help\nSvt[info]: -------------------------------------------\nSvt[info]: SVT [version]:\tSVT-AV1 Encoder Lib v3.1.0-19-g6ecfe8ec\nSvt[info]: SVT [build]  :\tGCC 15.2.0\t 64 bit\nSvt[info]: LIB Build date: Aug 17 2025 11:37:13\nSvt[info]: -------------------------------------------\n[libsvtav1 @ 000001fa02a5c1c0] Specified chroma sample location center is unsupported on the AV1 bit stream level. Usage of a container that allows passing this information - such as Matroska - is recommended.\nSvt[info]: Level of Parallelism: 5\nSvt[info]: Number of PPCS 93\nSvt[info]: [asm level on system : up to avx2]\nSvt[info]: [asm level selected : up to avx2]\nSvt[info]: -------------------------------------------\nSvt[info]: SVT [config]: main profile\ttier (auto)\tlevel (auto)\nSvt[info]: SVT [config]: width / height / fps numerator / fps denominator \t\t: 1920 / 1080 / 120 / 1\nSvt[info]: SVT [config]: bit-depth / color format \t\t\t\t\t: 8 / YUV420\nSvt[info]: SVT [config]: preset / tune / pred struct \t\t\t\t\t: 4 / PSNR / random access\nSvt[info]: SVT [config]: gop size / mini-gop size / key-frame type \t\t\t: 641 / 16 / key frame\nSvt[info]: SVT [config]: BRC mode / target bitrate (kbps)\t\t\t\t: VBR / 4000 \nSvt[info]: SVT [config]: AQ mode / Variance Boost \t\t\t\t\t: 2 / 0\nSvt[info]: SVT [config]: sharpness / luminance-based QP bias \t\t\t\t: 0 / 0\nSvt[info]: SVT [config]: QP scale compress strength \t\t\t\t\t: 0\nSvt[info]: -------------------------------------------\nOutput #0, matroska, to 'C:\\Users\\Peter\\Desktop\\stuff\\MIUN\\quantitative_research\\video_compression\\compressed_videos\\UVG\\av1\\4\\YachtRide_1920x1080_120fps_420_8bit_YUV_av1.mkv':\n  Metadata:\n    encoder         : Lavf62.3.100\n  Stream #0:0: Video: av1 (AV01 / 0x31305641), yuv420p(tv, progressive), 1920x1080, q=2-31, 4000 kb/s, 120 fps, 1k tbn\n    Metadata:\n      encoder         : Lavc62.11.100 libsvtav1\n    Side data:\n      cpb: bitrate max/min/avg: 0/0/4000000 buffer size: 4000000 vbv_delay: N/A\nframe=    0 fps=0.0 q=0.0 size=       0KiB time=N/A bitrate=N/A speed=N/A elapsed=0:00:03.20    \nframe=    0 fps=0.0 q=0.0 size=       0KiB time=N/A bitrate=N/A speed=N/A elapsed=0:00:03.73    \nframe=    0 fps=0.0 q=0.0 size=       0KiB time=N/A bitrate=N/A speed=N/A elapsed=0:00:04.26    \nframe=    0 fps=0.0 q=0.0 size=       0KiB time=N/A bitrate=N/A speed=N/A elapsed=0:00:04.78    \nframe=    0 fps=0.0 q=0.0 size=       0KiB time=N/A bitrate=N/A speed=N/A elapsed=0:00:05.33    \nframe=    0 fps=0.0 q=0.0 size=       0KiB time=N/A bitrate=N/A speed=N/A elapsed=0:00:05.91    \nframe=    0 fps=0.0 q=0.0 size=       0KiB time=N/A bitrate=N/A speed=N/A elapsed=0:00:06.43    \nframe=    0 fps=0.0 q=0.0 size=       0KiB time=N/A bitrate=N/A speed=N/A elapsed=0:00:07.00    \nframe=    0 fps=0.0 q=0.0 size=       0KiB time=N/A bitrate=N/A speed=N/A elapsed=0:00:07.59    \nframe=    0 fps=0.0 q=0.0 size=       0KiB time=N/A bitrate=N/A speed=N/A elapsed=0:00:08.19    \nframe=    0 fps=0.0 q=0.0 size=       0KiB time=N/A bitrate=N/A speed=N/A elapsed=0:00:08.79    \nframe=    0 fps=0.0 q=0.0 size=       0KiB time=N/A bitrate=N/A speed=N/A elapsed=0:00:09.31    \nframe=    0 fps=0.0 q=0.0 size=       0KiB time=N/A bitrate=N/A speed=N/A elapsed=0:00:09.86    \nframe=    0 fps=0.0 q=0.0 size=       0KiB time=N/A bitrate=N/A speed=N/A elapsed=0:00:10.40    \nframe=    0 fps=0.0 q=0.0 size=       0KiB time=N/A bitrate=N/A speed=N/A elapsed=0:00:10.99    \nframe=    0 fps=0.0 q=0.0 size=       0KiB time=N/A bitrate=N/A speed=N/A elapsed=0:00:11.53    \nframe=    0 fps=0.0 q=0.0 size=       0KiB time=N/A bitrate=N/A speed=N/A elapsed=0:00:12.16    \nframe=    0 fps=0.0 q=0.0 size=       0KiB time=N/A bitrate=N/A speed=N/A elapsed=0:00:12.68    \nframe=    0 fps=0.0 q=0.0 size=       0KiB time=N/A bitrate=N/A speed=N/A elapsed=0:00:13.20    \nframe=    0 fps=0.0 q=0.0 size=       0KiB time=N/A bitrate=N/A speed=N/A elapsed=0:00:13.71    \nframe=    0 fps=0.0 q=0.0 size=       0KiB time=N/A bitrate=N/A speed=N/A elapsed=0:00:14.24    \nframe=    0 fps=0.0 q=0.0 size=       0KiB time=N/A bitrate=N/A speed=N/A elapsed=0:00:14.76    \nframe=    0 fps=0.0 q=0.0 size=       0KiB time=N/A bitrate=N/A speed=N/A elapsed=0:00:15.28    \nframe=    0 fps=0.0 q=0.0 size=       0KiB time=N/A bitrate=N/A speed=N/A elapsed=0:00:15.82    \nframe=    0 fps=0.0 q=0.0 size=       0KiB time=N/A bitrate=N/A speed=N/A elapsed=0:00:16.37    \nframe=    0 fps=0.0 q=0.0 size=       0KiB time=N/A bitrate=N/A speed=N/A elapsed=0:00:16.89    \nframe=    1 fps=0.1 q=25.0 size=       1KiB time=00:00:00.00 bitrate=N/A speed=   0x elapsed=0:00:17.48    \nframe=    1 fps=0.1 q=25.0 size=       1KiB time=00:00:00.00 bitrate=N/A speed=   0x elapsed=0:00:18.06    \nframe=    1 fps=0.1 q=25.0 size=       1KiB time=00:00:00.00 bitrate=N/A speed=   0x elapsed=0:00:18.62    \nframe=    1 fps=0.1 q=25.0 size=       1KiB time=00:00:00.00 bitrate=N/A speed=   0x elapsed=0:00:19.15    \nframe=    1 fps=0.1 q=25.0 size=       1KiB time=00:00:00.00 bitrate=N/A speed=   0x elapsed=0:00:19.75    \nframe=    1 fps=0.0 q=25.0 size=       1KiB time=00:00:00.00 bitrate=N/A speed=   0x elapsed=0:00:20.30    \nframe=    1 fps=0.0 q=25.0 size=       1KiB time=00:00:00.00 bitrate=N/A speed=   0x elapsed=0:00:20.83    \nframe=    1 fps=0.0 q=25.0 size=       1KiB time=00:00:00.00 bitrate=N/A speed=   0x elapsed=0:00:21.34    \nframe=    1 fps=0.0 q=25.0 size=       1KiB time=00:00:00.00 bitrate=N/A speed=   0x elapsed=0:00:21.90    \nframe=    1 fps=0.0 q=25.0 size=       1KiB time=00:00:00.00 bitrate=N/A speed=   0x elapsed=0:00:22.45    \nframe=    1 fps=0.0 q=25.0 size=       1KiB time=00:00:00.00 bitrate=N/A speed=   0x elapsed=0:00:23.03    \nframe=    1 fps=0.0 q=25.0 size=       1KiB time=00:00:00.00 bitrate=N/A speed=   0x elapsed=0:00:23.65    \nframe=    1 fps=0.0 q=25.0 size=       1KiB time=00:00:00.00 bitrate=N/A speed=   0x elapsed=0:00:24.20    \nframe=    1 fps=0.0 q=25.0 size=       1KiB time=00:00:00.00 bitrate=N/A speed=   0x elapsed=0:00:24.71    \nframe=    2 fps=0.1 q=51.0 size=       1KiB time=00:00:00.00 bitrate= 537.6kbits/s speed=0.00033x elapsed=0:00:25.24    \nframe=    3 fps=0.1 q=48.0 size=       1KiB time=00:00:00.01 bitrate= 268.8kbits/s speed=0.000647x elapsed=0:00:25.76    \nframe=    3 fps=0.1 q=48.0 size=       1KiB time=00:00:00.01 bitrate= 268.8kbits/s speed=0.000633x elapsed=0:00:26.31    \nframe=    4 fps=0.1 q=51.0 size=       1KiB time=00:00:00.02 bitrate= 179.2kbits/s speed=0.000931x elapsed=0:00:26.86    \nframe=    6 fps=0.2 q=51.0 size=       1KiB time=00:00:00.04 bitrate= 107.5kbits/s speed=0.00152x elapsed=0:00:27.38    \nframe=    6 fps=0.2 q=51.0 size=       1KiB time=00:00:00.04 bitrate= 107.5kbits/s speed=0.00149x elapsed=0:00:27.95    \nframe=    7 fps=0.2 q=47.0 size=       1KiB time=00:00:00.05 bitrate=  89.6kbits/s speed=0.00175x elapsed=0:00:28.50    \nframe=    7 fps=0.2 q=47.0 size=       1KiB time=00:00:00.05 bitrate=  89.6kbits/s speed=0.00172x elapsed=0:00:29.05    \nframe=    7 fps=0.2 q=47.0 size=       1KiB time=00:00:00.05 bitrate=  89.6kbits/s speed=0.00169x elapsed=0:00:29.57    \nframe=    7 fps=0.2 q=47.0 size=       1KiB time=00:00:00.05 bitrate=  89.6kbits/s speed=0.00166x elapsed=0:00:30.13    \nframe=    8 fps=0.3 q=47.0 size=       1KiB time=00:00:00.05 bitrate=  76.8kbits/s speed=0.0019x elapsed=0:00:30.71    \nframe=    8 fps=0.3 q=47.0 size=       1KiB time=00:00:00.05 bitrate=  76.8kbits/s speed=0.00187x elapsed=0:00:31.26    \nframe=    8 fps=0.3 q=47.0 size=       1KiB time=00:00:00.05 bitrate=  76.8kbits/s speed=0.00183x elapsed=0:00:31.80    \nframe=    9 fps=0.3 q=43.0 size=       1KiB time=00:00:00.06 bitrate=  67.2kbits/s speed=0.00206x elapsed=0:00:32.33    \nframe=   10 fps=0.3 q=46.0 size=       1KiB time=00:00:00.07 bitrate=  59.7kbits/s speed=0.00228x elapsed=0:00:32.86    \nframe=   11 fps=0.3 q=46.0 size=       1KiB time=00:00:00.08 bitrate=  53.8kbits/s speed=0.0025x elapsed=0:00:33.37    \nframe=   11 fps=0.3 q=46.0 size=       1KiB time=00:00:00.08 bitrate=  53.8kbits/s speed=0.00246x elapsed=0:00:33.89    \nframe=   12 fps=0.3 q=44.0 size=       1KiB time=00:00:00.09 bitrate=  48.9kbits/s speed=0.00266x elapsed=0:00:34.41    \nframe=   13 fps=0.4 q=44.0 size=       1KiB time=00:00:00.10 bitrate=  44.8kbits/s speed=0.00286x elapsed=0:00:34.98    \nframe=   14 fps=0.4 q=46.0 size=       1KiB time=00:00:00.10 bitrate=  41.4kbits/s speed=0.00305x elapsed=0:00:35.53    \nframe=   15 fps=0.4 q=46.0 size=       1KiB time=00:00:00.10 bitrate=  41.4kbits/s speed=0.003x elapsed=0:00:36.05    \nframe=   15 fps=0.4 q=46.0 size=       1KiB time=00:00:00.11 bitrate=  38.4kbits/s speed=0.00318x elapsed=0:00:36.63    \nframe=   16 fps=0.4 q=46.0 size=       1KiB time=00:00:00.12 bitrate=  35.8kbits/s speed=0.00336x elapsed=0:00:37.18    \nframe=   18 fps=0.5 q=47.0 size=       1KiB time=00:00:00.13 bitrate=  33.6kbits/s speed=0.00354x elapsed=0:00:37.71    \nframe=   18 fps=0.5 q=47.0 size=       1KiB time=00:00:00.14 bitrate=  31.6kbits/s speed=0.0037x elapsed=0:00:38.23    \nframe=   19 fps=0.5 q=47.0 size=       1KiB time=00:00:00.15 bitrate=  29.9kbits/s speed=0.00387x elapsed=0:00:38.80    \nframe=   19 fps=0.5 q=47.0 size=       1KiB time=00:00:00.15 bitrate=  29.9kbits/s speed=0.00382x elapsed=0:00:39.31    \nframe=   20 fps=0.5 q=47.0 size=       1KiB time=00:00:00.15 bitrate=  28.3kbits/s speed=0.00397x elapsed=0:00:39.85    \nframe=   21 fps=0.5 q=45.0 size=       1KiB time=00:00:00.16 bitrate=  26.9kbits/s speed=0.00413x elapsed=0:00:40.36    \nframe=   22 fps=0.5 q=47.0 size=       1KiB time=00:00:00.17 bitrate=  25.6kbits/s speed=0.00428x elapsed=0:00:40.88    \nframe=   22 fps=0.5 q=47.0 size=       1KiB time=00:00:00.17 bitrate=  25.6kbits/s speed=0.00423x elapsed=0:00:41.39    \nframe=   22 fps=0.5 q=47.0 size=       1KiB time=00:00:00.17 bitrate=  25.6kbits/s speed=0.00417x elapsed=0:00:41.92    \nframe=   22 fps=0.5 q=47.0 size=       1KiB time=00:00:00.17 bitrate=  25.6kbits/s speed=0.00412x elapsed=0:00:42.44    \nframe=   23 fps=0.5 q=45.0 size=       1KiB time=00:00:00.18 bitrate=  24.4kbits/s speed=0.00427x elapsed=0:00:42.96    \nframe=   23 fps=0.5 q=45.0 size=       1KiB time=00:00:00.18 bitrate=  24.4kbits/s speed=0.0042x elapsed=0:00:43.61    \nframe=   24 fps=0.5 q=47.0 size=       1KiB time=00:00:00.19 bitrate=  23.4kbits/s speed=0.00434x elapsed=0:00:44.19    \nframe=   25 fps=0.6 q=43.0 size=       1KiB time=00:00:00.20 bitrate=  22.4kbits/s speed=0.00447x elapsed=0:00:44.71    \nframe=   27 fps=0.6 q=47.0 size=       1KiB time=00:00:00.21 bitrate=  20.7kbits/s speed=0.00479x elapsed=0:00:45.26    \nframe=   27 fps=0.6 q=47.0 size=       1KiB time=00:00:00.21 bitrate=  20.7kbits/s speed=0.00473x elapsed=0:00:45.78    \nframe=   29 fps=0.6 q=44.0 size=       1KiB time=00:00:00.23 bitrate=  19.2kbits/s speed=0.00503x elapsed=0:00:46.35    \nframe=   30 fps=0.6 q=49.0 size=       1KiB time=00:00:00.24 bitrate=  18.5kbits/s speed=0.00515x elapsed=0:00:46.93    \nframe=   31 fps=0.7 q=47.0 size=       1KiB time=00:00:00.25 bitrate=  17.9kbits/s speed=0.00527x elapsed=0:00:47.47    \nframe=   32 fps=0.7 q=49.0 size=       1KiB time=00:00:00.25 bitrate=  17.3kbits/s speed=0.00538x elapsed=0:00:47.98    \nframe=   35 fps=0.7 q=49.0 size=       1KiB time=00:00:00.28 bitrate=  15.8kbits/s speed=0.00584x elapsed=0:00:48.52    \nframe=   35 fps=0.7 q=49.0 size=       1KiB time=00:00:00.28 bitrate=  15.8kbits/s speed=0.00578x elapsed=0:00:49.05    \nframe=   36 fps=0.7 q=50.0 size=       1KiB time=00:00:00.29 bitrate=  15.4kbits/s speed=0.00588x elapsed=0:00:49.56    \nframe=   37 fps=0.7 q=47.0 size=       1KiB time=00:00:00.30 bitrate=  14.9kbits/s speed=0.00599x elapsed=0:00:50.07    \nframe=   38 fps=0.8 q=48.0 size=       1KiB time=00:00:00.30 bitrate=  14.5kbits/s speed=0.00609x elapsed=0:00:50.63    \nframe=   38 fps=0.7 q=48.0 size=       1KiB time=00:00:00.30 bitrate=  14.5kbits/s speed=0.00603x elapsed=0:00:51.16    \nframe=   39 fps=0.8 q=45.0 size=       1KiB time=00:00:00.31 bitrate=  14.1kbits/s speed=0.00613x elapsed=0:00:51.69    \nframe=   39 fps=0.7 q=45.0 size=       1KiB time=00:00:00.31 bitrate=  14.1kbits/s speed=0.00606x elapsed=0:00:52.24    \nframe=   39 fps=0.7 q=45.0 size=       1KiB time=00:00:00.31 bitrate=  14.1kbits/s speed=0.006x elapsed=0:00:52.78    \nframe=   40 fps=0.8 q=48.0 size=       1KiB time=00:00:00.32 bitrate=  13.8kbits/s speed=0.0061x elapsed=0:00:53.30    \nframe=   42 fps=0.8 q=49.0 size=       1KiB time=00:00:00.34 bitrate=  13.1kbits/s speed=0.00635x elapsed=0:00:53.84    \nframe=   43 fps=0.8 q=47.0 size=       1KiB time=00:00:00.35 bitrate=  12.8kbits/s speed=0.00643x elapsed=0:00:54.39    \nframe=   43 fps=0.8 q=47.0 size=       1KiB time=00:00:00.35 bitrate=  12.8kbits/s speed=0.00637x elapsed=0:00:54.95    \nframe=   44 fps=0.8 q=49.0 size=       1KiB time=00:00:00.35 bitrate=  12.5kbits/s speed=0.00645x elapsed=0:00:55.51    \nframe=   45 fps=0.8 q=44.0 size=       1KiB time=00:00:00.36 bitrate=  12.2kbits/s speed=0.00653x elapsed=0:00:56.13    \nframe=   46 fps=0.8 q=49.0 size=       1KiB time=00:00:00.37 bitrate=  11.9kbits/s speed=0.00661x elapsed=0:00:56.69    \nframe=   47 fps=0.8 q=47.0 size=       1KiB time=00:00:00.38 bitrate=  11.7kbits/s speed=0.0067x elapsed=0:00:57.20    \nframe=   48 fps=0.8 q=49.0 size=       1KiB time=00:00:00.39 bitrate=  11.4kbits/s speed=0.00678x elapsed=0:00:57.74    \nframe=   50 fps=0.9 q=50.0 size=       1KiB time=00:00:00.40 bitrate=  11.0kbits/s speed=0.00701x elapsed=0:00:58.27    \nframe=   51 fps=0.9 q=49.0 size=       1KiB time=00:00:00.41 bitrate=  10.8kbits/s speed=0.00709x elapsed=0:00:58.80    \nframe=   51 fps=0.9 q=49.0 size=       1KiB time=00:00:00.41 bitrate=  10.8kbits/s speed=0.00702x elapsed=0:00:59.32    \nframe=   52 fps=0.9 q=50.0 size=       1KiB time=00:00:00.42 bitrate=  10.5kbits/s speed=0.0071x elapsed=0:00:59.86    \nframe=   53 fps=0.9 q=47.0 size=       1KiB time=00:00:00.43 bitrate=  10.3kbits/s speed=0.00718x elapsed=0:01:00.38    \nframe=   54 fps=0.9 q=48.0 size=       1KiB time=00:00:00.44 bitrate=  10.1kbits/s speed=0.00725x elapsed=0:01:00.90    \nframe=   54 fps=0.9 q=48.0 size=       1KiB time=00:00:00.44 bitrate=  10.1kbits/s speed=0.00718x elapsed=0:01:01.47    \nframe=   54 fps=0.9 q=48.0 size=       1KiB time=00:00:00.44 bitrate=  10.1kbits/s speed=0.00713x elapsed=0:01:01.98    \nframe=   54 fps=0.9 q=48.0 size=       1KiB time=00:00:00.44 bitrate=  10.1kbits/s speed=0.00707x elapsed=0:01:02.49    \nframe=   55 fps=0.9 q=45.0 size=       1KiB time=00:00:00.45 bitrate=  10.0kbits/s speed=0.00714x elapsed=0:01:03.04    \nframe=   55 fps=0.9 q=45.0 size=       1KiB time=00:00:00.45 bitrate=  10.0kbits/s speed=0.00708x elapsed=0:01:03.59    \nframe=   56 fps=0.9 q=48.0 size=       1KiB time=00:00:00.45 bitrate=   9.8kbits/s speed=0.00715x elapsed=0:01:04.12    \nframe=   58 fps=0.9 q=49.0 size=       1KiB time=00:00:00.47 bitrate=   9.4kbits/s speed=0.00735x elapsed=0:01:04.65    \nframe=   59 fps=0.9 q=47.0 size=       1KiB time=00:00:00.48 bitrate=   9.3kbits/s speed=0.00742x elapsed=0:01:05.15    \nframe=   59 fps=0.9 q=47.0 size=       1KiB time=00:00:00.48 bitrate=   9.3kbits/s speed=0.00735x elapsed=0:01:05.71    \nframe=   61 fps=0.9 q=43.0 size=       1KiB time=00:00:00.50 bitrate=   9.0kbits/s speed=0.00754x elapsed=0:01:06.28    \nframe=   62 fps=0.9 q=49.0 size=       1KiB time=00:00:00.50 bitrate=   8.8kbits/s speed=0.00761x elapsed=0:01:06.83    \nframe=   62 fps=0.9 q=49.0 size=       1KiB time=00:00:00.50 bitrate=   8.8kbits/s speed=0.00755x elapsed=0:01:07.35    \nframe=   63 fps=0.9 q=47.0 size=       1KiB time=00:00:00.51 bitrate=   8.7kbits/s speed=0.00761x elapsed=0:01:07.90    \nframe=   65 fps=0.9 q=33.0 size=       1KiB time=00:00:00.53 bitrate=   8.4kbits/s speed=0.00779x elapsed=0:01:08.43    \nframe=   66 fps=1.0 q=50.0 size=       1KiB time=00:00:00.54 bitrate=   8.3kbits/s speed=0.00785x elapsed=0:01:09.03    \nframe=   67 fps=1.0 q=49.0 size=       1KiB time=00:00:00.55 bitrate=   8.1kbits/s speed=0.00791x elapsed=0:01:09.55    \nframe=   67 fps=1.0 q=49.0 size=       1KiB time=00:00:00.55 bitrate=   8.1kbits/s speed=0.00785x elapsed=0:01:10.08    \nframe=   68 fps=1.0 q=50.0 size=       1KiB time=00:00:00.55 bitrate=   8.0kbits/s speed=0.00791x elapsed=0:01:10.61    \nframe=   68 fps=1.0 q=50.0 size=       1KiB time=00:00:00.55 bitrate=   8.0kbits/s speed=0.00784x elapsed=0:01:11.19    \nframe=   69 fps=1.0 q=47.0 size=       1KiB time=00:00:00.56 bitrate=   7.9kbits/s speed=0.0079x elapsed=0:01:11.74    \nframe=   70 fps=1.0 q=48.0 size=       1KiB time=00:00:00.57 bitrate=   7.8kbits/s speed=0.00795x elapsed=0:01:12.30    \nframe=   70 fps=1.0 q=48.0 size=       1KiB time=00:00:00.57 bitrate=   7.8kbits/s speed=0.00789x elapsed=0:01:12.85    \nframe=   70 fps=1.0 q=48.0 size=       1KiB time=00:00:00.57 bitrate=   7.8kbits/s speed=0.00783x elapsed=0:01:13.44    \nframe=   71 fps=1.0 q=45.0 size=       1KiB time=00:00:00.58 bitrate=   7.7kbits/s speed=0.00789x elapsed=0:01:13.96    \nframe=   71 fps=1.0 q=45.0 size=       1KiB time=00:00:00.58 bitrate=   7.7kbits/s speed=0.00782x elapsed=0:01:14.55    \nframe=   71 fps=0.9 q=45.0 size=       1KiB time=00:00:00.58 bitrate=   7.7kbits/s speed=0.00777x elapsed=0:01:15.11    \nframe=   72 fps=1.0 q=48.0 size=       1KiB time=00:00:00.59 bitrate=   7.6kbits/s speed=0.00782x elapsed=0:01:15.67    \nframe=   73 fps=1.0 q=43.0 size=       1KiB time=00:00:00.60 bitrate=   7.5kbits/s speed=0.00787x elapsed=0:01:16.19    \nframe=   75 fps=1.0 q=47.0 size=       1KiB time=00:00:00.61 bitrate=   7.3kbits/s speed=0.00804x elapsed=0:01:16.70    \nframe=   75 fps=1.0 q=47.0 size=       1KiB time=00:00:00.61 bitrate=   7.3kbits/s speed=0.00798x elapsed=0:01:17.26    \nframe=   76 fps=1.0 q=50.0 size=       1KiB time=00:00:00.62 bitrate=   7.2kbits/s speed=0.00803x elapsed=0:01:17.79    \nframe=   78 fps=1.0 q=51.0 size=       1KiB time=00:00:00.64 bitrate=   7.0kbits/s speed=0.00819x elapsed=0:01:18.31    \nframe=   79 fps=1.0 q=47.0 size=       1KiB time=00:00:00.65 bitrate=   6.9kbits/s speed=0.00824x elapsed=0:01:18.86    \nframe=   81 fps=1.0 q=32.0 size=       1KiB time=00:00:00.65 bitrate=   6.8kbits/s speed=0.00829x elapsed=0:01:19.40    \nframe=   82 fps=1.0 q=51.0 size=       1KiB time=00:00:00.67 bitrate=   6.6kbits/s speed=0.00844x elapsed=0:01:19.99    \nframe=   83 fps=1.0 q=49.0 size=       1KiB time=00:00:00.68 bitrate=   6.6kbits/s speed=0.00849x elapsed=0:01:20.50    \nframe=   83 fps=1.0 q=49.0 size=       1KiB time=00:00:00.68 bitrate=   6.6kbits/s speed=0.00843x elapsed=0:01:21.01    \nframe=   85 fps=1.0 q=47.0 size=       1KiB time=00:00:00.70 bitrate=   6.4kbits/s speed=0.00859x elapsed=0:01:21.53    \nframe=   86 fps=1.0 q=51.0 size=       1KiB time=00:00:00.70 bitrate=   6.3kbits/s speed=0.00863x elapsed=0:01:22.06    \nframe=   86 fps=1.0 q=51.0 size=       1KiB time=00:00:00.70 bitrate=   6.3kbits/s speed=0.00857x elapsed=0:01:22.61    \nframe=   86 fps=1.0 q=51.0 size=       1KiB time=00:00:00.70 bitrate=   6.3kbits/s speed=0.00852x elapsed=0:01:23.14    \nframe=   87 fps=1.0 q=45.0 size=       1KiB time=00:00:00.71 bitrate=   6.3kbits/s speed=0.00856x elapsed=0:01:23.69    \nframe=   87 fps=1.0 q=45.0 size=       1KiB time=00:00:00.71 bitrate=   6.3kbits/s speed=0.00851x elapsed=0:01:24.23    \nframe=   88 fps=1.0 q=51.0 size=       1KiB time=00:00:00.72 bitrate=   6.2kbits/s speed=0.00855x elapsed=0:01:24.77    \nframe=   91 fps=1.1 q=47.0 size=       1KiB time=00:00:00.75 bitrate=   6.0kbits/s speed=0.00879x elapsed=0:01:25.30    \nframe=   92 fps=1.1 q=52.0 size=       1KiB time=00:00:00.75 bitrate=   5.9kbits/s speed=0.00883x elapsed=0:01:25.85    \nframe=   93 fps=1.1 q=44.0 size=       1KiB time=00:00:00.76 bitrate=   5.8kbits/s speed=0.00887x elapsed=0:01:26.46    \nframe=   94 fps=1.1 q=52.0 size=       1KiB time=00:00:00.77 bitrate=   5.8kbits/s speed=0.0089x elapsed=0:01:27.06    \nframe=   95 fps=1.1 q=48.0 size=       1KiB time=00:00:00.78 bitrate=   5.7kbits/s speed=0.00894x elapsed=0:01:27.61    \nframe=   95 fps=1.1 q=48.0 size=       1KiB time=00:00:00.78 bitrate=   5.7kbits/s speed=0.00889x elapsed=0:01:28.15    \nframe=   96 fps=1.1 q=52.0 size=       1KiB time=00:00:00.79 bitrate=   5.7kbits/s speed=0.00893x elapsed=0:01:28.67    \nframe=   99 fps=1.1 q=50.0 size=       1KiB time=00:00:00.81 bitrate=   5.5kbits/s speed=0.00915x elapsed=0:01:29.23    \nframe=   99 fps=1.1 q=50.0 size=       1KiB time=00:00:00.81 bitrate=   5.5kbits/s speed=0.0091x elapsed=0:01:29.76    \nframe=  100 fps=1.1 q=52.0 size=       1KiB time=00:00:00.82 bitrate=   5.4kbits/s speed=0.00913x elapsed=0:01:30.35    \nframe=  102 fps=1.1 q=52.0 size=       1KiB time=00:00:00.84 bitrate=   5.3kbits/s speed=0.00925x elapsed=0:01:30.97    \nframe=  102 fps=1.1 q=52.0 size=       1KiB time=00:00:00.84 bitrate=   5.3kbits/s speed=0.0092x elapsed=0:01:31.50    \nframe=  102 fps=1.1 q=52.0 size=       1KiB time=00:00:00.84 bitrate=   5.3kbits/s speed=0.00914x elapsed=0:01:32.11    \nframe=  103 fps=1.1 q=46.0 size=       1KiB time=00:00:00.85 bitrate=   5.3kbits/s speed=0.00917x elapsed=0:01:32.67    \nframe=  103 fps=1.1 q=46.0 size=       1KiB time=00:00:00.85 bitrate=   5.3kbits/s speed=0.00912x elapsed=0:01:33.20    \nframe=  105 fps=1.1 q=44.0 size=       1KiB time=00:00:00.86 bitrate=   5.2kbits/s speed=0.00925x elapsed=0:01:33.71    \nframe=  107 fps=1.1 q=48.0 size=       1KiB time=00:00:00.88 bitrate=   5.1kbits/s speed=0.00937x elapsed=0:01:34.31    \nframe=  108 fps=1.1 q=52.0 size=       1KiB time=00:00:00.89 bitrate=   5.0kbits/s speed=0.0094x elapsed=0:01:34.82    \nframe=  110 fps=1.2 q=53.0 size=       1KiB time=00:00:00.90 bitrate=   4.9kbits/s speed=0.00952x elapsed=0:01:35.37    \nframe=  111 fps=1.2 q=48.0 size=       1KiB time=00:00:00.91 bitrate=   4.9kbits/s speed=0.00956x elapsed=0:01:35.91    \nframe=  111 fps=1.2 q=48.0 size=       1KiB time=00:00:00.91 bitrate=   4.9kbits/s speed=0.0095x elapsed=0:01:36.44    \nframe=  114 fps=1.2 q=53.0 size=       1KiB time=00:00:00.94 bitrate=   4.8kbits/s speed=0.00971x elapsed=0:01:36.97    \nframe=  115 fps=1.2 q=51.0 size=       1KiB time=00:00:00.95 bitrate=   4.7kbits/s speed=0.00974x elapsed=0:01:37.48    \nframe=  115 fps=1.2 q=51.0 size=       1KiB time=00:00:00.95 bitrate=   4.7kbits/s speed=0.00969x elapsed=0:01:38.01    \nframe=  117 fps=1.2 q=49.0 size=       1KiB time=00:00:00.95 bitrate=   4.7kbits/s speed=0.00973x elapsed=0:01:38.54    \nframe=  118 fps=1.2 q=53.0 size=       1KiB time=00:00:00.97 bitrate=   4.6kbits/s speed=0.00984x elapsed=0:01:39.12    \nframe=  118 fps=1.2 q=53.0 size=       1KiB time=00:00:00.97 bitrate=   4.6kbits/s speed=0.00978x elapsed=0:01:39.69    \nframe=  118 fps=1.2 q=53.0 size=       1KiB time=00:00:00.97 bitrate=   4.6kbits/s speed=0.00973x elapsed=0:01:40.24    \nframe=  119 fps=1.2 q=47.0 size=       1KiB time=00:00:00.98 bitrate=   4.6kbits/s speed=0.00975x elapsed=0:01:40.87    \nframe=  120 fps=1.2 q=53.0 size=       1KiB time=00:00:00.99 bitrate=   4.5kbits/s speed=0.00975x elapsed=0:01:41.72    \nframe=  123 fps=1.2 q=49.0 size=       1KiB time=00:00:01.01 bitrate=   4.4kbits/s speed=0.00992x elapsed=0:01:42.46    \nframe=  125 fps=1.2 q=46.0 size=       1KiB time=00:00:01.02 bitrate=   4.4kbits/s speed=0.00993x elapsed=0:01:43.24    \nframe=  127 fps=1.2 q=49.0 size=       1KiB time=00:00:01.04 bitrate=   4.3kbits/s speed=0.01x elapsed=0:01:44.02    \nframe=  128 fps=1.2 q=53.0 size=       1KiB time=00:00:01.05 bitrate=   4.2kbits/s speed=0.0101x elapsed=0:01:44.77    \nframe=  131 fps=1.2 q=51.0 size=       1KiB time=00:00:01.08 bitrate=   4.1kbits/s speed=0.0103x elapsed=0:01:45.44    \nframe=  132 fps=1.2 q=53.0 size=       1KiB time=00:00:01.09 bitrate=   4.1kbits/s speed=0.0103x elapsed=0:01:46.17    \nframe=  134 fps=1.3 q=53.0 size=       1KiB time=00:00:01.10 bitrate=   4.0kbits/s speed=0.0104x elapsed=0:01:46.79    \nframe=  134 fps=1.2 q=53.0 size=       1KiB time=00:00:01.10 bitrate=   4.0kbits/s speed=0.0103x elapsed=0:01:47.45    \nframe=  136 fps=1.3 q=53.0 size=       1KiB time=00:00:01.11 bitrate=   4.0kbits/s speed=0.0103x elapsed=0:01:48.07    \nframe=  139 fps=1.3 q=50.0 size=       1KiB time=00:00:01.14 bitrate=   3.9kbits/s speed=0.0105x elapsed=0:01:48.78    \nframe=  139 fps=1.3 q=50.0 size=       1KiB time=00:00:01.15 bitrate=   3.9kbits/s speed=0.0105x elapsed=0:01:49.64    \nframe=  141 fps=1.3 q=47.0 size=       1KiB time=00:00:01.16 bitrate=   3.8kbits/s speed=0.0106x elapsed=0:01:50.31    \nframe=  142 fps=1.3 q=54.0 size=       1KiB time=00:00:01.17 bitrate=   3.8kbits/s speed=0.0106x elapsed=0:01:51.02    \nframe=  143 fps=1.3 q=50.0 size=       1KiB time=00:00:01.18 bitrate=   3.8kbits/s speed=0.0106x elapsed=0:01:51.70    \nframe=  146 fps=1.3 q=53.0 size=       1KiB time=00:00:01.20 bitrate=   3.7kbits/s speed=0.0108x elapsed=0:01:52.31    \nframe=  147 fps=1.3 q=52.0 size=       1KiB time=00:00:01.21 bitrate=   3.7kbits/s speed=0.0108x elapsed=0:01:52.88    \nframe=  149 fps=1.3 q=50.0 size=       1KiB time=00:00:01.23 bitrate=   3.6kbits/s speed=0.0109x elapsed=0:01:53.47    \nframe=  150 fps=1.3 q=54.0 size=       1KiB time=00:00:01.24 bitrate=   3.6kbits/s speed=0.0109x elapsed=0:01:54.14    \nframe=  151 fps=1.3 q=49.0 size=       1KiB time=00:00:01.25 bitrate=   3.6kbits/s speed=0.0109x elapsed=0:01:54.78    \nframe=  151 fps=1.3 q=49.0 size=       1KiB time=00:00:01.25 bitrate=   3.6kbits/s speed=0.0108x elapsed=0:01:55.45    \nframe=  154 fps=1.3 q=54.0 size=       1KiB time=00:00:01.27 bitrate=   3.5kbits/s speed=0.011x elapsed=0:01:56.05    \nframe=  157 fps=1.3 q=48.0 size=       1KiB time=00:00:01.29 bitrate=   3.5kbits/s speed=0.0111x elapsed=0:01:56.72    \nframe=  159 fps=1.4 q=50.0 size=       1KiB time=00:00:01.30 bitrate=   3.4kbits/s speed=0.0111x elapsed=0:01:57.40    \nframe=  160 fps=1.4 q=54.0 size=       1KiB time=00:00:01.32 bitrate=   3.4kbits/s speed=0.0112x elapsed=0:01:58.15    \nframe=  162 fps=1.4 q=53.0 size=       1KiB time=00:00:01.34 bitrate=   3.3kbits/s speed=0.0113x elapsed=0:01:58.82    \nframe=  163 fps=1.4 q=52.0 size=       1KiB time=00:00:01.35 bitrate=   3.3kbits/s speed=0.0113x elapsed=0:01:59.50    \nframe=  165 fps=1.4 q=50.0 size=       1KiB time=00:00:01.36 bitrate=   3.3kbits/s speed=0.0114x elapsed=0:02:00.13    \nframe=  166 fps=1.4 q=54.0 size=       1KiB time=00:00:01.37 bitrate=   3.3kbits/s speed=0.0114x elapsed=0:02:00.77    \nframe=  166 fps=1.4 q=54.0 size=       1KiB time=00:00:01.37 bitrate=   3.3kbits/s speed=0.0113x elapsed=0:02:01.43    \nframe=  167 fps=1.4 q=49.0 size=       1KiB time=00:00:01.38 bitrate=   3.2kbits/s speed=0.0113x elapsed=0:02:02.00    \nframe=  167 fps=1.4 q=49.0 size=       1KiB time=00:00:01.38 bitrate=   3.2kbits/s speed=0.0113x elapsed=0:02:02.64    \nframe=  170 fps=1.4 q=53.0 size=       1KiB time=00:00:01.40 bitrate=   3.2kbits/s speed=0.0114x elapsed=0:02:03.22    \nframe=  171 fps=1.4 q=51.0 size=       1KiB time=00:00:01.41 bitrate=   3.2kbits/s speed=0.0114x elapsed=0:02:03.85    \nframe=  174 fps=1.4 q=52.0 size=       1KiB time=00:00:01.43 bitrate=   3.1kbits/s speed=0.0115x elapsed=0:02:04.55    \nframe=  176 fps=1.4 q=52.0 size=       1KiB time=00:00:01.45 bitrate=   3.1kbits/s speed=0.0116x elapsed=0:02:05.21    \nframe=  179 fps=1.4 q=52.0 size=       1KiB time=00:00:01.48 bitrate=   3.0kbits/s speed=0.0118x elapsed=0:02:05.81    \nframe=  180 fps=1.4 q=53.0 size=       1KiB time=00:00:01.49 bitrate=   3.0kbits/s speed=0.0118x elapsed=0:02:06.34    \nframe=  182 fps=1.4 q=52.0 size=       1KiB time=00:00:01.50 bitrate=   3.0kbits/s speed=0.0119x elapsed=0:02:06.92    \nframe=  183 fps=1.4 q=49.0 size=       1KiB time=00:00:01.51 bitrate=   3.0kbits/s speed=0.0119x elapsed=0:02:07.50    \nframe=  183 fps=1.4 q=49.0 size=       1KiB time=00:00:01.51 bitrate=   3.0kbits/s speed=0.0118x elapsed=0:02:08.21    \nframe=  187 fps=1.5 q=51.0 size=       1KiB time=00:00:01.55 bitrate=   2.9kbits/s speed=0.012x elapsed=0:02:08.86    \nframe=  188 fps=1.5 q=52.0 size=       1KiB time=00:00:01.55 bitrate=   2.9kbits/s speed=0.012x elapsed=0:02:09.51    \nframe=  190 fps=1.5 q=53.0 size=       1KiB time=00:00:01.57 bitrate=   2.8kbits/s speed=0.0121x elapsed=0:02:10.17    \nframe=  192 fps=1.5 q=53.0 size=       1KiB time=00:00:01.59 bitrate=   2.8kbits/s speed=0.0122x elapsed=0:02:10.76    \nframe=  195 fps=1.5 q=53.0 size=       1KiB time=00:00:01.61 bitrate=   2.8kbits/s speed=0.0123x elapsed=0:02:11.34    \nframe=  196 fps=1.5 q=54.0 size=       1KiB time=00:00:01.62 bitrate=   2.8kbits/s speed=0.0123x elapsed=0:02:11.89    \nframe=  198 fps=1.5 q=54.0 size=       1KiB time=00:00:01.64 bitrate=   2.7kbits/s speed=0.0124x elapsed=0:02:12.45    \nframe=  199 fps=1.5 q=53.0 size=       1KiB time=00:00:01.65 bitrate=   2.7kbits/s speed=0.0124x elapsed=0:02:13.08    \nframe=  202 fps=1.5 q=53.0 size=       1KiB time=00:00:01.66 bitrate=   2.7kbits/s speed=0.0125x elapsed=0:02:13.67    \nframe=  203 fps=1.5 q=52.0 size=       1KiB time=00:00:01.68 bitrate=   2.7kbits/s speed=0.0125x elapsed=0:02:14.31    \nframe=  205 fps=1.5 q=49.0 size=       1KiB time=00:00:01.70 bitrate=   2.6kbits/s speed=0.0126x elapsed=0:02:15.03    \nframe=  207 fps=1.5 q=51.0 size=       1KiB time=00:00:01.71 bitrate=   2.6kbits/s speed=0.0126x elapsed=0:02:15.73    \nframe=  211 fps=1.5 q=53.0 size=       1KiB time=00:00:01.75 bitrate=   2.6kbits/s speed=0.0128x elapsed=0:02:16.31    \nframe=  212 fps=1.5 q=54.0 size=       1KiB time=00:00:01.75 bitrate=   2.5kbits/s speed=0.0128x elapsed=0:02:16.88    \nframe=  214 fps=1.6 q=52.0 size=       1KiB time=00:00:01.77 bitrate=   2.5kbits/s speed=0.0129x elapsed=0:02:17.51    \nframe=  215 fps=1.6 q=50.0 size=       1KiB time=00:00:01.78 bitrate=   2.5kbits/s speed=0.0129x elapsed=0:02:18.21    \nframe=  216 fps=1.6 q=52.0 size=       1KiB time=00:00:01.79 bitrate=   2.5kbits/s speed=0.0129x elapsed=0:02:18.89    \nframe=  219 fps=1.6 q=52.0 size=       1KiB time=00:00:01.81 bitrate=   2.5kbits/s speed=0.013x elapsed=0:02:19.48    \nframe=  221 fps=1.6 q=49.0 size=       1KiB time=00:00:01.83 bitrate=   2.4kbits/s speed=0.0131x elapsed=0:02:20.07    \nframe=  224 fps=1.6 q=53.0 size=       1KiB time=00:00:01.85 bitrate=   2.4kbits/s speed=0.0132x elapsed=0:02:20.59    \nframe=  227 fps=1.6 q=53.0 size=       1KiB time=00:00:01.88 bitrate=   2.4kbits/s speed=0.0133x elapsed=0:02:21.15    \nframe=  229 fps=1.6 q=51.0 size=       1KiB time=00:00:01.90 bitrate=   2.4kbits/s speed=0.0134x elapsed=0:02:21.70    \nframe=  230 fps=1.6 q=54.0 size=       1KiB time=00:00:01.90 bitrate=   2.3kbits/s speed=0.0134x elapsed=0:02:22.30    \nframe=  231 fps=1.6 q=53.0 size=       1KiB time=00:00:01.91 bitrate=   2.3kbits/s speed=0.0134x elapsed=0:02:22.94    \nframe=  232 fps=1.6 q=54.0 size=       1KiB time=00:00:01.92 bitrate=   2.3kbits/s speed=0.0134x elapsed=0:02:23.57    \nframe=  235 fps=1.6 q=52.0 size=       1KiB time=00:00:01.95 bitrate=   2.3kbits/s speed=0.0135x elapsed=0:02:24.11    \nframe=  237 fps=1.6 q=49.0 size=       1KiB time=00:00:01.96 bitrate=   2.3kbits/s speed=0.0136x elapsed=0:02:24.68    \nframe=  239 fps=1.6 q=51.0 size=       1KiB time=00:00:01.98 bitrate=   2.3kbits/s speed=0.0136x elapsed=0:02:25.36    \nframe=  241 fps=1.7 q=40.0 size=       1KiB time=00:00:02.00 bitrate=   2.2kbits/s speed=0.0137x elapsed=0:02:25.95    \nframe=  243 fps=1.7 q=53.0 size=       1KiB time=00:00:02.01 bitrate=   2.2kbits/s speed=0.0138x elapsed=0:02:26.52    \nframe=  246 fps=1.7 q=53.0 size=       1KiB time=00:00:02.04 bitrate=   2.2kbits/s speed=0.0139x elapsed=0:02:27.05    \nframe=  247 fps=1.7 q=50.0 size=       1KiB time=00:00:02.05 bitrate=   2.2kbits/s speed=0.0139x elapsed=0:02:27.66    \nframe=  250 fps=1.7 q=54.0 size=       1KiB time=00:00:02.07 bitrate=   2.2kbits/s speed=0.014x elapsed=0:02:28.38    \nframe=  252 fps=1.7 q=54.0 size=       1KiB time=00:00:02.08 bitrate=   2.2kbits/s speed=0.014x elapsed=0:02:29.04    \nframe=  255 fps=1.7 q=51.0 size=       1KiB time=00:00:02.10 bitrate=   2.1kbits/s speed=0.0141x elapsed=0:02:29.77    \nframe=  258 fps=1.7 q=54.0 size=       1KiB time=00:00:02.14 bitrate=   2.1kbits/s speed=0.0142x elapsed=0:02:30.43    \nframe=  260 fps=1.7 q=54.0 size=       1KiB time=00:00:02.15 bitrate=   2.1kbits/s speed=0.0143x elapsed=0:02:30.97    \nframe=  262 fps=1.7 q=53.0 size=       1KiB time=00:00:02.17 bitrate=   2.1kbits/s speed=0.0144x elapsed=0:02:31.48    \nframe=  263 fps=1.7 q=50.0 size=       1KiB time=00:00:02.18 bitrate=   2.1kbits/s speed=0.0144x elapsed=0:02:32.10    \nframe=  264 fps=1.7 q=53.0 size=       1KiB time=00:00:02.19 bitrate=   2.0kbits/s speed=0.0143x elapsed=0:02:32.82    \nframe=  267 fps=1.7 q=52.0 size=       1KiB time=00:00:02.21 bitrate=   2.0kbits/s speed=0.0144x elapsed=0:02:33.42    \nframe=  270 fps=1.8 q=54.0 size=       1KiB time=00:00:02.24 bitrate=   2.0kbits/s speed=0.0146x elapsed=0:02:34.02    \nframe=  272 fps=1.8 q=53.0 size=       1KiB time=00:00:02.25 bitrate=   2.0kbits/s speed=0.0146x elapsed=0:02:34.62    \nframe=  275 fps=1.8 q=53.0 size=       1KiB time=00:00:02.28 bitrate=   2.0kbits/s speed=0.0147x elapsed=0:02:35.30    \nframe=  278 fps=1.8 q=54.0 size=       1KiB time=00:00:02.30 bitrate=   1.9kbits/s speed=0.0148x elapsed=0:02:35.85    \nframe=  279 fps=1.8 q=53.0 size=       1KiB time=00:00:02.31 bitrate=   1.9kbits/s speed=0.0148x elapsed=0:02:36.48    \nframe=  283 fps=1.8 q=52.0 size=       1KiB time=00:00:02.35 bitrate=   1.9kbits/s speed=0.015x elapsed=0:02:37.14    \nframe=  285 fps=1.8 q=49.0 size=       1KiB time=00:00:02.36 bitrate=   1.9kbits/s speed=0.015x elapsed=0:02:37.68    \nframe=  287 fps=1.8 q=52.0 size=       1KiB time=00:00:02.38 bitrate=   1.9kbits/s speed=0.0151x elapsed=0:02:38.25    \nframe=  291 fps=1.8 q=53.0 size=       1KiB time=00:00:02.41 bitrate=   1.9kbits/s speed=0.0152x elapsed=0:02:38.80    \nframe=  294 fps=1.8 q=54.0 size=       1KiB time=00:00:02.44 bitrate=   1.8kbits/s speed=0.0153x elapsed=0:02:39.32    \nframe=  295 fps=1.8 q=50.0 size=       1KiB time=00:00:02.45 bitrate=   1.8kbits/s speed=0.0153x elapsed=0:02:39.89    \nframe=  298 fps=1.9 q=54.0 size=       1KiB time=00:00:02.46 bitrate=   1.8kbits/s speed=0.0154x elapsed=0:02:40.57    \nframe=  301 fps=1.9 q=49.0 size=       1KiB time=00:00:02.49 bitrate=   1.8kbits/s speed=0.0155x elapsed=0:02:41.12    \nframe=  303 fps=1.9 q=52.0 size=       1KiB time=00:00:02.51 bitrate=   1.8kbits/s speed=0.0156x elapsed=0:02:41.75    \nframe=  307 fps=1.9 q=53.0 size=       1KiB time=00:00:02.55 bitrate=   1.8kbits/s speed=0.0157x elapsed=0:02:42.30    \nframe=  310 fps=1.9 q=54.0 size=       1KiB time=00:00:02.57 bitrate=   1.7kbits/s speed=0.0158x elapsed=0:02:42.84    \nframe=  311 fps=1.9 q=50.0 size=       1KiB time=00:00:02.58 bitrate=   1.7kbits/s speed=0.0158x elapsed=0:02:43.40    \nframe=  315 fps=1.9 q=52.0 size=       1KiB time=00:00:02.61 bitrate=   1.7kbits/s speed=0.016x elapsed=0:02:43.97    \nframe=  318 fps=1.9 q=54.0 size=       1KiB time=00:00:02.64 bitrate=   1.7kbits/s speed=0.0161x elapsed=0:02:44.58    \nframe=  322 fps=1.9 q=55.0 size=       1KiB time=00:00:02.66 bitrate=   1.7kbits/s speed=0.0161x elapsed=0:02:45.16    \nframe=  324 fps=2.0 q=55.0 size=       1KiB time=00:00:02.69 bitrate=   1.7kbits/s speed=0.0162x elapsed=0:02:45.75    \nframe=  326 fps=2.0 q=55.0 size=       1KiB time=00:00:02.70 bitrate=   1.7kbits/s speed=0.0163x elapsed=0:02:46.35    \nframe=  327 fps=2.0 q=51.0 size=       1KiB time=00:00:02.71 bitrate=   1.6kbits/s speed=0.0163x elapsed=0:02:46.95    \nframe=  331 fps=2.0 q=52.0 size=       1KiB time=00:00:02.75 bitrate=   1.6kbits/s speed=0.0164x elapsed=0:02:47.59    \nframe=  334 fps=2.0 q=55.0 size=       1KiB time=00:00:02.77 bitrate=   1.6kbits/s speed=0.0165x elapsed=0:02:48.16    \nframe=  338 fps=2.0 q=55.0 size=       1KiB time=00:00:02.80 bitrate=   1.6kbits/s speed=0.0166x elapsed=0:02:48.68    \nframe=  341 fps=2.0 q=52.0 size=       1KiB time=00:00:02.83 bitrate=   1.6kbits/s speed=0.0167x elapsed=0:02:49.22    \nframe=  343 fps=2.0 q=51.0 size=       1KiB time=00:00:02.85 bitrate=   1.6kbits/s speed=0.0168x elapsed=0:02:49.77    \nframe=  346 fps=2.0 q=55.0 size=       1KiB time=00:00:02.87 bitrate=   1.6kbits/s speed=0.0169x elapsed=0:02:50.32    \nframe=  347 fps=2.0 q=53.0 size=       1KiB time=00:00:02.88 bitrate=   1.6kbits/s speed=0.0169x elapsed=0:02:50.92    \nframe=  350 fps=2.0 q=55.0 size=       1KiB time=00:00:02.90 bitrate=   1.5kbits/s speed=0.017x elapsed=0:02:51.53    \nframe=  354 fps=2.1 q=55.0 size=       1KiB time=00:00:02.94 bitrate=   1.5kbits/s speed=0.0171x elapsed=0:02:52.13    \nframe=  357 fps=2.1 q=52.0 size=       1KiB time=00:00:02.96 bitrate=   1.5kbits/s speed=0.0172x elapsed=0:02:52.64    \nframe=  358 fps=2.1 q=55.0 size=       1KiB time=00:00:02.97 bitrate=   1.5kbits/s speed=0.0172x elapsed=0:02:53.19    \nframe=  359 fps=2.1 q=51.0 size=       1KiB time=00:00:02.98 bitrate=   1.5kbits/s speed=0.0172x elapsed=0:02:53.76    \nframe=  363 fps=2.1 q=53.0 size=       1KiB time=00:00:03.01 bitrate=   1.5kbits/s speed=0.0173x elapsed=0:02:54.30    \nframe=  366 fps=2.1 q=55.0 size=       1KiB time=00:00:03.04 bitrate=   1.5kbits/s speed=0.0174x elapsed=0:02:54.84    \nframe=  370 fps=2.1 q=55.0 size=       1KiB time=00:00:03.07 bitrate=   1.5kbits/s speed=0.0175x elapsed=0:02:55.38    \nframe=  373 fps=2.1 q=52.0 size=       1KiB time=00:00:03.10 bitrate=   1.4kbits/s speed=0.0176x elapsed=0:02:55.96    \nframe=  375 fps=2.1 q=52.0 size=       1KiB time=00:00:03.10 bitrate=   1.4kbits/s speed=0.0176x elapsed=0:02:56.49    \nframe=  376 fps=2.1 q=55.0 size=       1KiB time=00:00:03.12 bitrate=   1.4kbits/s speed=0.0176x elapsed=0:02:57.11    \nframe=  380 fps=2.1 q=55.0 size=       1KiB time=00:00:03.15 bitrate=   1.4kbits/s speed=0.0178x elapsed=0:02:57.71    \nframe=  385 fps=2.2 q=42.0 size=       1KiB time=00:00:03.20 bitrate=   1.4kbits/s speed=0.0179x elapsed=0:02:58.29    \nframe=  388 fps=2.2 q=55.0 size=       1KiB time=00:00:03.22 bitrate=   1.4kbits/s speed=0.018x elapsed=0:02:58.82    \nframe=  390 fps=2.2 q=55.0 size=       1KiB time=00:00:03.24 bitrate=   1.4kbits/s speed=0.0181x elapsed=0:02:59.34    \nframe=  392 fps=2.2 q=55.0 size=       1KiB time=00:00:03.25 bitrate=   1.4kbits/s speed=0.0181x elapsed=0:02:59.89    \nframe=  395 fps=2.2 q=53.0 size=       1KiB time=00:00:03.28 bitrate=   1.4kbits/s speed=0.0182x elapsed=0:03:00.58    \nframe=  397 fps=2.2 q=51.0 size=       1KiB time=00:00:03.30 bitrate=   1.4kbits/s speed=0.0182x elapsed=0:03:01.22    \nframe=  401 fps=2.2 q=42.0 size=       1KiB time=00:00:03.33 bitrate=   1.3kbits/s speed=0.0183x elapsed=0:03:01.83    \nframe=  406 fps=2.2 q=54.0 size=       1KiB time=00:00:03.37 bitrate=   1.3kbits/s speed=0.0185x elapsed=0:03:02.34    \nframe=  407 fps=2.2 q=52.0 size=       1KiB time=00:00:03.38 bitrate=   1.3kbits/s speed=0.0185x elapsed=0:03:02.87    \nframe=  412 fps=2.2 q=55.0 size=       1KiB time=00:00:03.42 bitrate=   1.3kbits/s speed=0.0187x elapsed=0:03:03.40    \nframe=  417 fps=2.3 q=42.0 size=       1KiB time=00:00:03.46 bitrate=   1.3kbits/s speed=0.0188x elapsed=0:03:03.92    \nframe=  421 fps=2.3 q=53.0 size=       1KiB time=00:00:03.50 bitrate=   1.3kbits/s speed=0.019x elapsed=0:03:04.48    \nframe=  423 fps=2.3 q=52.0 size=       1KiB time=00:00:03.51 bitrate=   1.3kbits/s speed=0.019x elapsed=0:03:05.00    \nframe=  427 fps=2.3 q=53.0 size=       1KiB time=00:00:03.55 bitrate=   1.3kbits/s speed=0.0191x elapsed=0:03:05.58    \nframe=  432 fps=2.3 q=54.0 size=       1KiB time=00:00:03.59 bitrate=   1.2kbits/s speed=0.0193x elapsed=0:03:06.11    \nframe=  438 fps=2.3 q=54.0 size=       1KiB time=00:00:03.64 bitrate=   1.2kbits/s speed=0.0195x elapsed=0:03:06.63    \nframe=  439 fps=2.3 q=52.0 size=       1KiB time=00:00:03.65 bitrate=   1.2kbits/s speed=0.0195x elapsed=0:03:07.19    \nframe=  444 fps=2.4 q=54.0 size=       1KiB time=00:00:03.69 bitrate=   1.2kbits/s speed=0.0197x elapsed=0:03:07.82    \nframe=  448 fps=2.4 q=55.0 size=       1KiB time=00:00:03.72 bitrate=   1.2kbits/s speed=0.0198x elapsed=0:03:08.39    \nframe=  453 fps=2.4 q=53.0 size=       1KiB time=00:00:03.76 bitrate=   1.2kbits/s speed=0.0199x elapsed=0:03:08.91    \nframe=  455 fps=2.4 q=52.0 size=       1KiB time=00:00:03.78 bitrate=   1.2kbits/s speed=0.02x elapsed=0:03:09.42    \nframe=  460 fps=2.4 q=54.0 size=       1KiB time=00:00:03.82 bitrate=   1.2kbits/s speed=0.0201x elapsed=0:03:09.97    \nframe=  466 fps=2.4 q=55.0 size=       1KiB time=00:00:03.87 bitrate=   1.2kbits/s speed=0.0203x elapsed=0:03:10.50    \nframe=  469 fps=2.5 q=53.0 size=       1KiB time=00:00:03.90 bitrate=   1.1kbits/s speed=0.0204x elapsed=0:03:11.05    \nframe=  471 fps=2.5 q=52.0 size=       1KiB time=00:00:03.91 bitrate=   1.1kbits/s speed=0.0204x elapsed=0:03:11.63    \nframe=  475 fps=2.5 q=53.0 size=       1KiB time=00:00:03.95 bitrate=   1.1kbits/s speed=0.0206x elapsed=0:03:12.21    \nframe=  481 fps=2.5 q=42.0 size=       1KiB time=00:00:04.00 bitrate=   1.1kbits/s speed=0.0208x elapsed=0:03:12.72    \nframe=  486 fps=2.5 q=54.0 size=       1KiB time=00:00:04.04 bitrate=   1.1kbits/s speed=0.0209x elapsed=0:03:13.23    \nframe=  487 fps=2.5 q=52.0 size=       1KiB time=00:00:04.05 bitrate=   1.1kbits/s speed=0.0209x elapsed=0:03:13.76    \nframe=  491 fps=2.5 q=53.0 size=       1KiB time=00:00:04.08 bitrate=   1.1kbits/s speed=0.021x elapsed=0:03:14.33    \nframe=  494 fps=2.5 q=55.0 size=       1KiB time=00:00:04.10 bitrate=   1.1kbits/s speed=0.0211x elapsed=0:03:14.89    \nframe=  499 fps=2.6 q=54.0 size=       1KiB time=00:00:04.15 bitrate=   1.1kbits/s speed=0.0212x elapsed=0:03:15.41    \nframe=  505 fps=2.6 q=50.0 size=       1KiB time=00:00:04.20 bitrate=   1.1kbits/s speed=0.0214x elapsed=0:03:15.92    \nframe=  509 fps=2.6 q=51.0 size=       1KiB time=00:00:04.23 bitrate=   1.1kbits/s speed=0.0216x elapsed=0:03:16.43    \nframe=  511 fps=2.6 q=53.0 size=       1KiB time=00:00:04.25 bitrate=   1.1kbits/s speed=0.0216x elapsed=0:03:16.95    \nframe=  515 fps=2.6 q=55.0 size=       1KiB time=00:00:04.28 bitrate=   1.0kbits/s speed=0.0217x elapsed=0:03:17.49    \nframe=  521 fps=2.6 q=50.0 size=       1KiB time=00:00:04.33 bitrate=   1.0kbits/s speed=0.0219x elapsed=0:03:18.00    \nframe=  525 fps=2.6 q=51.0 size=       1KiB time=00:00:04.36 bitrate=   1.0kbits/s speed=0.022x elapsed=0:03:18.51    \nframe=  529 fps=2.7 q=43.0 size=       1KiB time=00:00:04.40 bitrate=   1.0kbits/s speed=0.0221x elapsed=0:03:19.03    \nframe=  537 fps=2.7 q=50.0 size=       1KiB time=00:00:04.46 bitrate=   1.0kbits/s speed=0.0224x elapsed=0:03:19.54    \nframe=  539 fps=2.7 q=53.0 size=       1KiB time=00:00:04.48 bitrate=   1.0kbits/s speed=0.0224x elapsed=0:03:20.11    \nframe=  543 fps=2.7 q=53.0 size=       1KiB time=00:00:04.51 bitrate=   1.0kbits/s speed=0.0225x elapsed=0:03:20.64    \nframe=  549 fps=2.7 q=53.0 size=       1KiB time=00:00:04.56 bitrate=   1.0kbits/s speed=0.0227x elapsed=0:03:21.19    \nframe=  553 fps=2.7 q=50.0 size=       1KiB time=00:00:04.60 bitrate=   1.0kbits/s speed=0.0228x elapsed=0:03:21.70    \nframe=  561 fps=2.8 q=42.0 size=       1KiB time=00:00:04.66 bitrate=   1.0kbits/s speed=0.0231x elapsed=0:03:22.22    \nframe=  565 fps=2.8 q=53.0 size=       1KiB time=00:00:04.70 bitrate=   1.0kbits/s speed=0.0232x elapsed=0:03:22.77    \nframe=  569 fps=2.8 q=50.0 size=       1KiB time=00:00:04.73 bitrate=   0.9kbits/s speed=0.0233x elapsed=0:03:23.38    \nframe=  571 fps=2.8 q=51.0 size=       1KiB time=00:00:04.75 bitrate=   0.9kbits/s speed=0.0233x elapsed=0:03:23.94    \nframe=  577 fps=2.8 q=42.0 size=       1KiB time=00:00:04.80 bitrate=   0.9kbits/s speed=0.0235x elapsed=0:03:24.45    \nframe=  585 fps=2.9 q=48.0 size=       1KiB time=00:00:04.86 bitrate=   0.9kbits/s speed=0.0237x elapsed=0:03:24.97    \nframe=  591 fps=2.9 q=54.0 size=       1KiB time=00:00:04.90 bitrate=   0.9kbits/s speed=0.0238x elapsed=0:03:25.50    \n[out#0/matroska @ 000001fa02a590c0] video:2594KiB audio:0KiB subtitle:0KiB other streams:0KiB global headers:0KiB muxing overhead: 0.126076%\nframe=  600 fps=2.9 q=55.0 Lsize=    2597KiB time=00:00:04.99 bitrate=4262.6kbits/s speed=0.0243x elapsed=0:03:25.58    \n",
  "seconds": 206.42699575424194,
  "probe_out": {}
}